HIERARCHY
ROOT Hips
{
	OFFSET 0.000000 0.000000 0.000000
	CHANNELS 6 Xposition Yposition Zposition Yrotation Xrotation Zrotation
	JOINT Chest
	{
		OFFSET 0.000000 -0.009281 11.569106
		CHANNELS 3 Yrotation Xrotation Zrotation
		JOINT Chest2
		{
			OFFSET -0.000000 0.016865 9.269641
			CHANNELS 3 Yrotation Xrotation Zrotation
			JOINT Chest3
			{
				OFFSET -0.000000 0.000001 8.374491
				CHANNELS 3 Yrotation Xrotation Zrotation
				JOINT Chest4
				{
					OFFSET -0.000000 0.000001 8.374493
					CHANNELS 3 Yrotation Xrotation Zrotation
					JOINT Neck
					{
						OFFSET -0.000000 0.000002 12.152554
						CHANNELS 3 Yrotation Xrotation Zrotation
						JOINT Head
						{
							OFFSET -0.000000 0.040101 7.802319
							CHANNELS 3 Yrotation Xrotation Zrotation
							End Site
							{
								OFFSET -0.000000 0.020947 14.853096
							}
						}
					}
					JOINT RightCollar
					{
						OFFSET 2.894404 0.000001 6.791374
						CHANNELS 3 Yrotation Xrotation Zrotation
						JOINT RightShoulder
						{
							OFFSET 13.574684 0.000001 0.000000
							CHANNELS 3 Yrotation Xrotation Zrotation
							JOINT RightElbow
							{
								OFFSET 23.923903 0.000002 0.000000
								CHANNELS 3 Yrotation Xrotation Zrotation
								JOINT RightWrist
								{
									OFFSET 19.846718 0.012767 0.000000
									CHANNELS 3 Yrotation Xrotation Zrotation
									End Site
									{
										OFFSET 14.973145 0.000001 0.000000
									}
								}
							}
						}
					}
					JOINT LeftCollar
					{
						OFFSET -2.894404 0.000001 6.791374
						CHANNELS 3 Yrotation Xrotation Zrotation
						JOINT LeftShoulder
						{
							OFFSET -13.574684 -0.000001 0.000000
							CHANNELS 3 Yrotation Xrotation Zrotation
							JOINT LeftElbow
							{
								OFFSET -23.923903 -0.000002 0.000000
								CHANNELS 3 Yrotation Xrotation Zrotation
								JOINT LeftWrist
								{
									OFFSET -19.846718 0.012763 0.000000
									CHANNELS 3 Yrotation Xrotation Zrotation
									End Site
									{
										OFFSET -14.973145 -0.000001 0.000000
									}
								}
							}
						}
					}
				}
			}
		}
	}
	JOINT RightHip
	{
		OFFSET 9.469263 0.004643 0.045487
		CHANNELS 3 Yrotation Xrotation Zrotation
		JOINT RightKnee
		{
			OFFSET 0.000000 0.002661 -40.478676
			CHANNELS 3 Yrotation Xrotation Zrotation
			JOINT RightAnkle
			{
				OFFSET 0.000000 0.049106 -35.224068
				CHANNELS 3 Yrotation Xrotation Zrotation
				JOINT RightToe
				{
					OFFSET -0.000001 12.539529 -6.151390
					CHANNELS 3 Yrotation Xrotation Zrotation
					End Site
					{
						OFFSET -0.000001 5.044994 -1.291870
					}
				}
			}
		}
	}
	JOINT LeftHip
	{
		OFFSET -9.469263 0.004641 0.045487
		CHANNELS 3 Yrotation Xrotation Zrotation
		JOINT LeftKnee
		{
			OFFSET 0.000000 0.002661 -40.478676
			CHANNELS 3 Yrotation Xrotation Zrotation
			JOINT LeftAnkle
			{
				OFFSET 0.000000 0.049106 -35.224068
				CHANNELS 3 Yrotation Xrotation Zrotation
				JOINT LeftToe
				{
					OFFSET -0.000001 12.539529 -6.151390
					CHANNELS 3 Yrotation Xrotation Zrotation
					End Site
					{
						OFFSET -0.000001 5.044994 -1.291870
					}
				}
			}
		}
	}
}
MOTION
Frames: 9
Frame Time: 0.016667
9.360595 7.658204 83.241463 -5.238314 -1.794173 -109.446282 -0.468100 -3.351866 1.042005 -0.198876 -1.488875 0.452194 -0.198876 -1.488875 0.452194 -0.148047 -1.116804 0.338639 0.715513 -15.181668 -2.536483 0.384311 7.976114 -4.476934 3.106920 19.112102 -4.201345 30.988647 47.398583 28.561510 -33.741534 -4.155803 65.125178 23.875310 -22.377923 -25.006755 -5.958486 14.534374 -4.470518 -26.277689 50.576376 -26.833223 12.599564 2.472508 -61.819434 -27.686956 -42.271047 37.650185 -0.638341 -5.622954 -3.019062 1.125903 -2.684382 -7.263963 0.000900 1.932284 3.343783 -0.019338 0.026341 0.001355 -0.740383 -6.338365 -0.454028 1.073210 -1.490429 0.802400 -1.163416 2.563436 -0.186777 0.068897 -0.047921 -0.000135 
9.346902 7.674578 83.243469 -5.215179 -1.792229 -109.410847 -0.465255 -3.324673 1.027850 -0.197474 -1.476498 0.443845 -0.197475 -1.476498 0.443848 -0.147025 -1.107517 0.332389 0.709431 -15.192808 -2.524789 0.377671 7.955489 -4.457136 3.173588 19.041406 -4.150818 31.304577 47.668805 28.336343 -35.145715 -3.839196 66.175838 21.844340 -23.387509 -24.529455 -6.042193 14.290565 -4.486449 -26.473518 50.672784 -26.569779 13.279682 2.274256 -62.728683 -25.636739 -43.390027 36.387857 -0.641506 -5.582447 -3.003890 1.131632 -2.698984 -7.268792 0.009854 1.910599 3.308120 -0.018419 0.032190 0.001393 -0.732025 -6.310697 -0.426322 1.064066 -1.464544 0.830212 -1.182774 2.537398 -0.262046 0.077410 -0.049410 -0.001290 
9.336459 7.694665 83.246010 -5.189924 -1.783665 -109.372755 -0.478738 -3.296671 1.020963 -0.203948 -1.463707 0.439371 -0.203948 -1.463707 0.439370 -0.151900 -1.097927 0.329020 0.722316 -15.206636 -2.519677 0.404116 7.930335 -4.442466 3.250139 18.963180 -4.117417 31.650615 48.027790 28.097037 -36.300932 -3.555518 67.070170 19.935427 -24.104415 -24.079820 -6.133984 14.114389 -4.537282 -26.604330 50.784779 -26.264750 13.774596 2.048466 -63.519509 -22.587982 -44.384994 34.409325 -0.651230 -5.546372 -3.008426 1.140685 -2.698634 -7.269424 0.013415 1.883926 3.271460 -0.015505 0.035974 0.001046 -0.732054 -6.280486 -0.414566 1.055692 -1.436960 0.858101 -1.206210 2.509170 -0.325898 0.089504 -0.048826 -0.002061 
9.326534 7.714650 83.248894 -5.163130 -1.769339 -109.328823 -0.499888 -3.269717 1.018760 -0.214400 -1.451663 0.437263 -0.214400 -1.451663 0.437262 -0.159753 -1.088901 0.327418 0.747490 -15.222145 -2.519126 0.451877 7.902317 -4.431689 3.327163 18.825856 -4.064955 31.924147 48.455817 27.786733 -37.051816 -3.310999 67.748756 17.253818 -24.577269 -23.284735 -6.235593 14.015529 -4.571510 -26.779807 50.879858 -26.025029 13.945283 1.789868 -64.095199 -17.674890 -45.533825 31.027405 -0.665077 -5.513280 -3.015985 1.145400 -2.687626 -7.267620 0.017926 1.853945 3.234081 -0.010768 0.037835 0.002048 -0.731798 -6.243230 -0.415651 1.037301 -1.416188 0.860813 -1.226285 2.483510 -0.357543 0.101677 -0.047253 -0.003125 
9.313964 7.733429 83.251862 -5.131501 -1.755178 -109.273519 -0.512750 -3.238203 1.011216 -0.220841 -1.438036 0.432923 -0.220841 -1.438037 0.432926 -0.164603 -1.078684 0.324159 0.762846 -15.243985 -2.519205 0.481221 7.862246 -4.425686 3.399680 18.681237 -4.018610 32.120184 48.915093 27.436914 -37.374163 -3.226468 68.230994 13.106176 -25.076312 -21.758044 -6.323403 13.904472 -4.539802 -27.091874 50.951343 -25.882850 13.859759 1.581772 -64.460716 -10.796793 -46.863468 25.958149 -0.673353 -5.471822 -3.012822 1.152522 -2.683154 -7.284611 0.016305 1.823776 3.190840 -0.005249 0.042611 0.003823 -0.728817 -6.197808 -0.434153 1.024170 -1.397117 0.841934 -1.251584 2.454764 -0.369612 0.112328 -0.044990 -0.003864 
9.298238 7.753790 83.254753 -5.108120 -1.748548 -109.217471 -0.506503 -3.211373 0.991511 -0.217986 -1.426726 0.422805 -0.217986 -1.426726 0.422805 -0.162494 -1.070197 0.316580 0.746814 -15.270930 -2.506518 0.456806 7.811980 -4.407502 3.477528 18.534132 -3.930740 32.243991 49.502141 27.043586 -37.509828 -3.381644 68.608472 7.896908 -25.642598 -19.546149 -6.435391 13.734394 -4.520245 -27.438226 51.024880 -25.723430 13.844024 1.440572 -64.646327 -2.754152 -47.951708 19.707633 -0.671614 -5.432377 -2.989067 1.151322 -2.688575 -7.317310 0.019219 1.794268 3.106544 -0.001440 0.047717 0.004975 -0.720373 -6.156102 -0.461524 1.006981 -1.386825 0.831458 -1.275149 2.429010 -0.381644 0.121481 -0.044219 -0.004848 
9.281001 7.774598 83.256989 -5.090872 -1.749981 -109.166948 -0.486910 -3.179442 0.962349 -0.209032 -1.412811 0.408223 -0.209032 -1.412812 0.408228 -0.155822 -1.059748 0.305675 0.706155 -15.311083 -2.479453 0.392135 7.736741 -4.371412 3.583249 18.454493 -3.811602 32.356884 50.088144 26.669845 -37.825349 -3.712414 68.899472 2.577873 -26.126085 -17.005151 -6.549294 13.435587 -4.495419 -27.877564 51.130427 -25.659656 14.089702 1.379216 -64.713823 4.584711 -48.643518 13.836486 -0.673391 -5.391977 -2.952648 1.157811 -2.710939 -7.348803 0.022696 1.771723 3.050945 0.002142 0.052384 0.006753 -0.709297 -6.123436 -0.472014 0.994533 -1.374978 0.832690 -1.300616 2.405712 -0.414335 0.127725 -0.047145 -0.005531 
9.265085 7.796112 83.258652 -5.077229 -1.754040 -109.133514 -0.473698 -3.148501 0.938205 -0.203371 -1.398763 0.395867 -0.203371 -1.398763 0.395866 -0.151614 -1.049204 0.296419 0.669349 -15.357576 -2.446264 0.337137 7.649979 -4.322301 3.691882 18.394295 -3.725059 32.535691 50.522093 26.393548 -38.215550 -3.952573 68.983435 -1.893222 -26.584802 -14.577029 -6.685088 13.107945 -4.555702 -28.256834 51.326652 -25.600264 14.408600 1.316160 -64.672794 10.759384 -48.842898 8.829603 -0.676006 -5.356487 -2.922667 1.165284 -2.729383 -7.363479 0.024718 1.747596 3.015217 0.004888 0.054838 0.008113 -0.700089 -6.099999 -0.441810 0.984071 -1.358446 0.822730 -1.325631 2.383994 -0.461878 0.131819 -0.050896 -0.005828 
9.251746 7.816375 83.260796 -5.071655 -1.754973 -109.108823 -0.472725 -3.125188 0.923869 -0.203706 -1.388049 0.388522 -0.203706 -1.388049 0.388523 -0.151889 -1.041167 0.290915 0.648101 -15.408038 -2.415606 0.310369 7.556272 -4.272035 3.752875 18.246738 -3.710632 32.906943 50.928985 26.325111 -38.265903 -4.093135 68.823083 -5.888517 -26.733588 -12.375021 -6.834245 12.885732 -4.698268 -28.545551 51.607724 -25.487121 14.324946 1.245113 -64.442760 16.836766 -48.253036 3.851509 -0.682910 -5.329744 -2.917109 1.166331 -2.746098 -7.363083 0.028366 1.724994 2.995062 0.008634 0.055307 0.008750 -0.696619 -6.083511 -0.401080 0.972131 -1.347027 0.811815 -1.350574 2.364157 -0.509259 0.135517 -0.051073 -0.005881 
